File size                        : 1.23 GiB
Duration                         : 1h 33mn
Overall bit rate                 : 1 894 Kbps
Writing application              : AVI-Mux GUI 1.17.8.3, Feb 16 201019:42:50

Video
ID                               : 0
Format                           : MPEG-4 Visual
Format profile                   : Advanced Simple@L5
Format settings, BVOP            : 2
Format settings, QPel            : No
Format settings, GMC             : No warppoints
Format settings, Matrix          : Default (H.263)
Codec ID                         : XVID
Codec ID/Hint                    : XviD
Duration                         : 1h 33mn
Bit rate                         : 1 761 Kbps
Width                            : 720 pixels
Height                           : 304 pixels
Display aspect ratio             : 2.35:1
Frame rate                       : 25.000 fps
Color space                      : YUV
Chroma subsampling               : 4:2:0
Bit depth                        : 8 bits
Scan type                        : Progressive
Compression mode                 : Lossy
Bits/(Pixel*Frame)               : 0.322
Stream size                      : 1.14 GiB (93%)
Writing library                  : XviD 1.2.1 (UTC 2008-12-04)

Audio
ID                               : 1
Format                           : AC-3
Format/Info                      : Audio Coding 3
Mode extension                   : CM (complete main)
Codec ID                         : 2000
Duration                         : 1h 33mn
Bit rate mode                    : Constant
Bit rate                         : 128 Kbps
Channel(s)                       : 2 channels
Channel positions                : Front: L R
Sampling rate                    : 48.0 KHz
Bit depth                        : 16 bits
Compression mode                 : Lossy
Stream size                      : 85.2 MiB (7%)
Alignment                        : Aligned on interleaves
Interleave, duration             : 64 ms (1.60 video frames)
Interleave, preload duration     : 192 ms
Title                            : Dark Skies CAM audio cleaned



IMDBhttp://www.imdb.com/title/tt2387433/

source &gt;&gt;&gt;&gt;&gt;&gt;Dark Skies 2013 Webrip 720p Read Info X264 AC3 TommieCook thanks bro appreciate it!

sample provided....watch it first, maybe be an idea

Notes: split source and worked on video a tad , adjusted script etc&gt;.audio reduced to mp3 fist, equalized and adjusted waveform .......added few filters ..........changed back to CBR and as i said it is cam audio dont expect perfection you will  never achieve it&gt;&gt;from cam audio .........enough waffle .......!


Screens: 
http://i.imgur.com/ZknsYbv.png 
http://i.imgur.com/DfMmT1X.png 
http://i.imgur.com/Zw1aebE.png 
http://i.imgur.com/7h7dULM.png